<?xml version="1.0" encoding="UTF-8"?>
<svg width="512" height="512" viewBox="0 0 512 512" xmlns="http://www.w3.org/2000/svg">
  <!-- Hintergrund -->
  <rect width="512" height="512" rx="115" fill="#4f46e5"/>
  
  <!-- Kassenbon -->
  <rect x="140" y="80" width="232" height="352" rx="8" fill="white"/>
  
  <!-- Gezackte Kante unten -->
  <path d="M140,432 L156,420 L172,432 L188,420 L204,432 L220,420 L236,432 L252,420 L268,432 L284,420 L300,432 L316,420 L332,432 L348,420 L364,432 L372,432 L372,440 L140,440 Z" fill="white"/>
  
  <!-- Text-Linien -->
  <line x1="180" y1="140" x2="332" y2="140" stroke="#4f46e5" stroke-width="8" stroke-linecap="round"/>
  <line x1="180" y1="180" x2="332" y2="180" stroke="#d1d5db" stroke-width="6" stroke-linecap="round"/>
  <line x1="180" y1="210" x2="280" y2="210" stroke="#d1d5db" stroke-width="6" stroke-linecap="round"/>
  <line x1="180" y1="240" x2="320" y2="240" stroke="#d1d5db" stroke-width="6" stroke-linecap="round"/>
  <line x1="180" y1="270" x2="260" y2="270" stroke="#d1d5db" stroke-width="6" stroke-linecap="round"/>
  
  <!-- Trennlinie -->
  <line x1="160" y1="320" x2="352" y2="320" stroke="#e5e7eb" stroke-width="2" stroke-dasharray="8,4"/>
  
  <!-- Summe -->
  <line x1="180" y1="360" x2="332" y2="360" stroke="#4f46e5" stroke-width="10" stroke-linecap="round"/>
  
  <!-- Euro-Symbol -->
  <circle cx="420" cy="380" r="60" fill="#f97316"/>
  <text x="420" y="410" font-family="Arial, sans-serif" font-size="60" font-weight="bold" fill="white" text-anchor="middle">€</text>
</svg>